<?xml version="1.0" encoding="UTF-8"?>
<svg id="Calque_2" data-name="Calque 2" xmlns="http://www.w3.org/2000/svg" viewBox="0 0 522.13 450.5">
  <defs>
    <style>
      .cls-1 {
        fill: #fff;
      }
    </style>
  </defs>
  <g id="Calque_2-2" data-name="Calque 2">
    <g>
      <path class="cls-1" d="m499.37,9.77c-8.3-4.07-16.94-6.86-25.93-8.37-8.98-1.51-18.14-1.8-27.47-.86-9.33.94-18.49,2.81-27.48,5.62-18.21,5.68-34.34,12.88-48.4,21.59-14.06,8.71-26.45,18.62-37.16,29.74-10.72,11.12-19.92,23.12-27.62,36.01-7.7,12.89-14.25,26.47-19.66,40.74-9.6-1.31-19.97-1.9-31.08-1.78-6.02.07-12.26.34-18.73.83-2.1.16-4.23.34-6.38.54-20.97,1.99-44.27,6.97-69.9,14.97-27.65,8.63-51.47,19.28-71.45,31.93-19.98,12.66-36.45,26.31-49.39,40.95-12.95,14.65-22.56,29.68-28.85,45.09C3.57,282.18.29,296.96.02,311.11c-.27,14.15,2.23,27.12,7.52,38.92,5.29,11.8,13.03,21.41,23.25,28.83,10.21,7.42,22.64,12.05,37.28,13.9,14.64,1.85,31.28-.14,49.95-5.97,9.21-2.88,8.15-5.5-.84-2.7-15.29,4.77-28.98,5.97-41.07,3.57-12.1-2.39-22.34-7.33-30.72-14.83-8.39-7.49-14.72-17.11-19-28.86-4.28-11.74-6.22-24.46-5.81-38.16.41-13.69,3.36-27.94,8.86-42.74,5.5-14.79,13.91-29.14,25.24-43.04,11.33-13.9,25.74-26.78,43.25-38.67,17.51-11.88,38.33-21.83,62.47-29.86,25.78-8.29,48.81-12.95,69.1-13.98,1.8-.09,3.59-.16,5.35-.21,6.5-.19,12.73-.12,18.69.21,10.61.59,20.38,2.01,29.29,4.27-5.43,15.02-9.82,30.39-13.17,46.12-3.36,15.73-6.23,31.43-8.61,47.1-2.39,15.68-4.46,31.18-6.2,46.53-1.02,8.98-.43,7.63-1.55,16.17,6.71-2.46,17.27-5.38,22.85-7.32,8.05-2.77,13.61-5.5,17.26-6.83,16.44-6.61,29.99-14.36,40.67-23.24,10.67-8.88,18.71-18.11,24.11-27.7,5.39-9.58,8.17-19.26,8.32-29.06.15-9.79-2.24-19.04-7.18-27.74-4.93-8.69-12.33-16.38-22.18-23.05-9.85-6.67-22.12-11.78-36.8-15.34,4.37-14.44,9.74-28.26,16.1-41.48,6.36-13.21,14.29-25.37,23.77-36.47,9.49-11.1,20.71-20.96,33.69-29.58,12.98-8.61,28.12-15.63,45.43-21.03,8.77-2.74,17.7-4.54,26.81-5.41,9.11-.86,18-.62,26.69.73,8.69,1.36,17.03,4,25.04,7.91,8.01,3.92,15.33,9.4,21.98,16.45l2.28-2.19c-6.87-6.98-14.45-12.51-22.76-16.58Zm-162.97,166.71c8.06,12.78,11.25,26.16,9.57,40.13-1.69,13.98-8.31,27.33-19.87,40.07-11.57,12.74-28.22,22.63-49.95,29.66,2.97-22.88,5.8-46.22,8.49-70.01,2.69-23.78,7.16-47.01,13.4-69.69,17.52,7.12,30.31,17.06,38.37,29.84Z"/>
      <path class="cls-1" d="m410.76,386.42c-6.74,2.11-12.09,2.17-16.04.2-3.95-1.98-7.09-5.32-9.42-10.01-2.33-4.7-4.14-10.31-5.43-16.81-1.29-6.51-2.67-13.29-4.14-20.36-1.46-7.07-3.38-13.99-5.75-20.78-2.37-6.78-5.77-12.75-10.22-17.91-4.45-5.15-10.28-9-17.49-11.56-7.22-2.56-16.31-3.24-27.28-2.03,16.44-6.61,29.99-14.36,40.67-23.24,10.67-8.88,18.71-18.11,24.11-27.7,5.39-9.58,8.17-19.26,8.32-29.06.15-9.79-2.24-19.04-7.18-27.74-4.93-8.69-12.33-16.38-22.18-23.05-9.85-6.67-22.12-11.78-36.8-15.34-4.91-1.07-17.01-2.62-19.67-3.19-.76,1.85,2.58,6.58,2.15,7.54-.16.44-.3.88-.45,1.32,5.5.15,10.81,1.99,15.2,5.31.16-.58.3-1.17.46-1.76,17.52,7.11,30.31,17.06,38.37,29.84,8.06,12.78,11.25,26.16,9.57,40.13-1.69,13.98-8.31,27.33-19.87,40.07-11.57,12.74-28.22,22.63-49.95,29.66.45-3.45.89-6.92,1.33-10.4-.48.26-1,.47-1.56.64-1.11.54-2.41.86-3.92.86-.17,0-.34-.02-.5-.02-.94.79-2.08,1.38-3.46,1.68-1.25,1.02-2.88,1.68-4.88,1.78-1.37,1.19-3.21,1.95-5.55,1.95-1.06,0-2.02-.15-2.88-.43-1.72,15.03-3.57,29.46-5.55,43.26-2.02,14.08-4.36,27.33-7.02,39.75-2.66,12.43-6.02,23.59-10.08,33.49-9.74-1.16-19.33-2.05-28.78-2.67-9.45-.63-17.47-.03-24.06,1.77-12.88,3.78-21.61,9.02-26.17,15.76-4.56,6.73-5.76,12.96-3.6,18.7,2.16,5.74,7.13,9.99,14.9,12.74,7.77,2.76,17.69,2.12,29.76-1.89,21.29-6.89,38.08-20.28,50.38-40.15,6.91.8,13.64,1.23,20.2,1.28,6.55.05,12.46-.56,17.74-1.84,5.27-1.28,9.81-3.56,13.6-6.84,3.79-3.28,1.11-5.53-2.3-2.61-3.41,2.91-7.51,4.99-12.3,6.24-4.79,1.25-10.21,1.89-16.24,1.92-6.04.03-12.36-.27-18.98-.92,8.55-14.51,14.93-31.18,19.17-50.03,4.23-18.83,7.71-38.92,10.43-60.25,11.52-2.61,20.74-2.9,27.67-.87,6.93,2.04,12.41,5.56,16.45,10.59,4.03,5.03,7.05,11.12,9.04,18.27,1.98,7.15,3.73,14.51,5.22,22.06,1.49,7.55,3.14,14.81,4.95,21.77,1.8,6.96,4.67,12.79,8.6,17.48,3.93,4.7,9.22,7.79,15.86,9.3,6.63,1.5,15.46.54,26.48-2.9l-.95-3.03Zm-174.02,43.6c-6.31,6.65-14.04,11.54-23.18,14.64-11.09,3.21-20.09,3.62-27.01,1.21-6.92-2.41-11.17-6.14-12.75-11.19-1.58-5.06-.19-10.49,4.17-16.29,4.35-5.8,12.3-10.38,23.84-13.73,6.52-2.03,14.2-2.71,23.06-2.02,8.85.69,18.03,1.65,27.54,2.87-4.14,9.68-9.36,17.85-15.67,24.51Z"/>
      <path class="cls-1" d="m379.72,378.54c-6.74,2.11-12.09,2.17-16.04.2-3.95-1.98-7.09-5.32-9.42-10.01-2.33-4.7-4.14-10.31-5.43-16.81-1.29-6.51-2.67-13.29-4.13-20.36-1.46-7.07-3.38-13.99-5.75-20.78-2.37-6.78-5.77-12.75-10.22-17.91-1.2-1.39-21.41-2.04-22.39-1.48,1.53,1.26,2.93,2.65,4.18,4.21,4.03,5.03,7.04,11.12,9.04,18.27,1.98,7.15,3.72,14.51,5.22,22.06,1.49,7.55,3.14,14.81,4.95,21.77,1.8,6.96,4.67,12.79,8.6,17.48,3.93,4.7,9.22,7.79,15.86,9.3,6.63,1.5,15.46.54,26.48-2.9l-.95-3.03Z"/>
    </g>
  </g>
</svg>