<?xml version="1.0" encoding="UTF-8"?>
<svg id="Calque_2" data-name="Calque 2" xmlns="http://www.w3.org/2000/svg" viewBox="0 0 359.94 359.94">
  <defs>
    <style>
      .cls-1 {
        fill: #fff;
      }

      .cls-2 {
        fill: #1d1d1b;
      }
    </style>
  </defs>
  <g id="Calque_2-2" data-name="Calque 2">
    <circle class="cls-1" cx="179.97" cy="179.97" r="179.97"/>
    <g>
      <path class="cls-2" d="m301.26,61.74c-4.7-2.3-9.59-3.88-14.68-4.74-5.09-.85-10.27-1.02-15.55-.49-5.28.53-10.47,1.59-15.56,3.18-10.31,3.22-19.44,7.29-27.4,12.22-7.96,4.93-14.97,10.54-21.04,16.83-6.07,6.29-11.28,13.09-15.64,20.39-4.36,7.3-8.07,14.99-11.13,23.07-5.44-.74-11.3-1.08-17.6-1.01-3.41.04-6.94.2-10.6.47-1.19.09-2.4.19-3.61.31-11.87,1.12-25.06,3.95-39.57,8.48-15.66,4.89-29.14,10.91-40.45,18.08-11.31,7.17-20.63,14.89-27.96,23.19-7.33,8.3-12.77,16.8-16.33,25.53-3.56,8.73-5.42,17.09-5.57,25.1-.15,8.01,1.26,15.36,4.26,22.03,2.99,6.68,7.38,12.12,13.16,16.32,5.78,4.2,12.82,6.82,21.1,7.87,8.29,1.05,17.71-.08,28.28-3.38,5.22-1.63,4.61-3.12-.48-1.53-8.66,2.7-16.41,3.38-23.25,2.02-6.85-1.35-12.65-4.15-17.39-8.4-4.75-4.24-8.33-9.69-10.76-16.34-2.42-6.65-3.52-13.85-3.29-21.6.23-7.75,1.9-15.82,5.02-24.19,3.11-8.37,7.87-16.5,14.29-24.36,6.41-7.87,14.57-15.16,24.49-21.89,9.91-6.72,21.7-12.36,35.37-16.91,14.6-4.69,27.64-7.33,39.12-7.92,1.02-.05,2.03-.09,3.03-.12,3.68-.11,7.21-.07,10.58.12,6.01.33,11.54,1.14,16.58,2.42-3.07,8.5-5.56,17.21-7.46,26.11-1.9,8.91-3.53,17.79-4.88,26.66-1.35,8.87-2.52,17.65-3.51,26.34-.58,5.08-.24,4.32-.88,9.16,3.8-1.39,9.78-3.04,12.94-4.15,4.56-1.57,7.7-3.11,9.77-3.86,9.31-3.74,16.98-8.13,23.02-13.16,6.04-5.03,10.59-10.25,13.65-15.68,3.05-5.42,4.63-10.91,4.71-16.45.08-5.54-1.27-10.78-4.06-15.7-2.79-4.92-6.98-9.27-12.56-13.05-5.58-3.77-12.53-6.67-20.83-8.69,2.48-8.18,5.51-16,9.12-23.48,3.6-7.48,8.09-14.36,13.46-20.65,5.37-6.29,11.73-11.86,19.08-16.75,7.35-4.88,15.92-8.85,25.72-11.91,4.96-1.55,10.02-2.57,15.18-3.06,5.15-.49,10.19-.35,15.11.42,4.92.77,9.64,2.26,14.18,4.48,4.53,2.22,8.68,5.32,12.44,9.32l1.29-1.24c-3.89-3.95-8.18-7.08-12.88-9.39Zm-92.27,94.38c4.56,7.24,6.37,14.81,5.42,22.72-.95,7.91-4.7,15.47-11.25,22.68-6.55,7.21-15.98,12.81-28.28,16.79,1.68-12.96,3.28-26.17,4.81-39.63,1.52-13.47,4.05-26.62,7.59-39.45,9.92,4.03,17.16,9.66,21.72,16.89Z"/>
      <path class="cls-2" d="m251.09,274.98c-3.82,1.19-6.84,1.23-9.08.11-2.23-1.12-4.01-3.01-5.33-5.67-1.32-2.66-2.34-5.84-3.08-9.52-.73-3.68-1.51-7.52-2.34-11.53-.83-4-1.92-7.92-3.25-11.77-1.34-3.84-3.27-7.22-5.78-10.14-2.52-2.91-5.82-5.1-9.9-6.55-4.09-1.45-9.23-1.83-15.45-1.15,9.31-3.74,16.98-8.13,23.03-13.16,6.04-5.03,10.59-10.25,13.65-15.68,3.05-5.42,4.62-10.91,4.71-16.45.08-5.54-1.27-10.78-4.06-15.7-2.79-4.92-6.98-9.27-12.56-13.05-5.58-3.77-12.53-6.67-20.83-8.69-2.78-.61-9.63-1.48-11.13-1.8-.43,1.05,1.46,3.73,1.22,4.27-.09.25-.17.5-.26.75,3.11.08,6.12,1.13,8.61,3,.09-.33.17-.66.26-1,9.92,4.03,17.16,9.66,21.72,16.89,4.56,7.24,6.37,14.81,5.42,22.72-.95,7.91-4.7,15.47-11.25,22.68-6.55,7.21-15.98,12.81-28.28,16.79.25-1.95.5-3.92.75-5.89-.27.15-.57.27-.88.36-.63.3-1.36.48-2.22.48-.1,0-.19,0-.28-.01-.53.45-1.18.78-1.96.95-.71.58-1.63.95-2.76,1.01-.78.67-1.82,1.1-3.14,1.1-.6,0-1.14-.09-1.63-.24-.97,8.51-2.02,16.68-3.14,24.49-1.15,7.97-2.47,15.47-3.97,22.51-1.51,7.04-3.41,13.35-5.71,18.96-5.51-.65-10.94-1.16-16.29-1.51-5.35-.36-9.89-.02-13.62,1-7.29,2.14-12.23,5.11-14.81,8.92-2.58,3.81-3.26,7.34-2.04,10.59,1.22,3.25,4.03,5.65,8.43,7.21,4.4,1.56,10.01,1.2,16.85-1.07,12.05-3.9,21.56-11.48,28.52-22.73,3.91.46,7.72.7,11.44.73,3.71.03,7.06-.32,10.04-1.04,2.99-.72,5.55-2.01,7.7-3.87,2.14-1.86.63-3.13-1.3-1.48-1.93,1.65-4.25,2.83-6.96,3.54-2.71.71-5.78,1.07-9.19,1.09-3.42.02-7-.16-10.74-.52,4.84-8.22,8.46-17.65,10.85-28.32,2.4-10.66,4.36-22.03,5.9-34.11,6.52-1.48,11.74-1.64,15.67-.49,3.92,1.15,7.02,3.15,9.31,6,2.28,2.85,3.99,6.3,5.12,10.35,1.12,4.05,2.11,8.21,2.96,12.49.84,4.28,1.78,8.38,2.8,12.33,1.02,3.94,2.64,7.24,4.87,9.9,2.22,2.66,5.22,4.41,8.98,5.26,3.75.85,8.75.3,14.99-1.64l-.54-1.72Zm-98.52,24.68c-3.57,3.77-7.95,6.53-13.13,8.29-6.28,1.82-11.38,2.05-15.29.69-3.92-1.36-6.32-3.47-7.22-6.34-.89-2.86-.11-5.94,2.36-9.22,2.46-3.28,6.96-5.88,13.5-7.78,3.69-1.15,8.04-1.53,13.05-1.14,5.01.39,10.21.93,15.59,1.63-2.34,5.48-5.3,10.1-8.87,13.87Z"/>
      <path class="cls-2" d="m233.52,270.52c-3.82,1.19-6.84,1.23-9.08.11-2.23-1.12-4.01-3.01-5.33-5.67-1.32-2.66-2.35-5.84-3.08-9.52-.73-3.68-1.51-7.52-2.34-11.53-.83-4-1.92-7.92-3.25-11.77-1.34-3.84-3.27-7.22-5.78-10.14-.68-.79-12.12-1.15-12.68-.84.86.71,1.66,1.5,2.37,2.38,2.28,2.85,3.99,6.3,5.12,10.35,1.12,4.05,2.11,8.21,2.96,12.49.84,4.28,1.78,8.38,2.8,12.33,1.02,3.94,2.64,7.24,4.87,9.9,2.22,2.66,5.22,4.41,8.98,5.26,3.76.85,8.75.3,14.99-1.64l-.54-1.72Z"/>
    </g>
  </g>
</svg>